<svg width="120" height="120" viewBox="0 0 120 120" fill="none" xmlns="http://www.w3.org/2000/svg">
<g clip-path="url(#clip0_2441_19098)">
<path d="M78.9526 40.1317C99.3952 39.8168 116.059 55.9075 116.459 76.3501C116.517 79.3564 116.23 82.2768 115.6 85.0826C114.541 89.8354 113.94 94.6454 113.94 99.5127V108.904C113.94 110.335 112.766 111.509 111.334 111.509H101.943C97.0761 111.509 92.266 112.139 87.5133 113.17C84.7074 113.8 81.787 114.086 78.7808 114.029C58.3382 113.628 42.2475 96.9645 42.5624 76.5219C42.8773 56.566 58.968 40.4753 78.9239 40.1604L78.9526 40.1317Z" fill="url(#paint0_linear_2441_19098)"/>
<path d="M78.9526 40.1317C99.3952 39.8168 116.059 55.9075 116.459 76.3501C116.517 79.3564 116.23 82.2768 115.6 85.0826C114.541 89.8354 113.94 94.6454 113.94 99.5127V108.904C113.94 110.335 112.766 111.509 111.334 111.509H101.943C97.0761 111.509 92.266 112.139 87.5133 113.17C84.7074 113.8 81.787 114.086 78.7808 114.029C58.3382 113.628 42.2475 96.9645 42.5624 76.5219C42.8773 56.566 58.968 40.4753 78.9239 40.1604L78.9526 40.1317Z" fill="#B0C4FA"/>
<path d="M50.2358 6.40433C25.3554 6.03212 5.02728 25.6158 4.54055 50.5249C4.48329 54.1897 4.82686 57.7399 5.5999 61.147C6.8883 66.9305 7.63271 72.7999 7.63271 78.7265V90.1504C7.63271 91.8969 9.06427 93.3284 10.8108 93.3284H22.2346C28.1612 93.3284 34.0306 94.0728 39.8141 95.3612C43.2212 96.1056 46.7715 96.4779 50.4362 96.4206C75.3453 95.9339 94.929 75.6058 94.5568 50.7253C94.1846 26.4175 74.5436 6.77653 50.2358 6.40433Z" fill="#3467DB"/>
<path d="M28.3614 60.7175C32.2039 60.7175 35.3188 57.6025 35.3188 53.7601C35.3188 49.9177 32.2039 46.8027 28.3614 46.8027C24.519 46.8027 21.4041 49.9177 21.4041 53.7601C21.4041 57.6025 24.519 60.7175 28.3614 60.7175Z" fill="white"/>
<path d="M48.0885 60.7175C51.9309 60.7175 55.0458 57.6025 55.0458 53.7601C55.0458 49.9177 51.9309 46.8027 48.0885 46.8027C44.246 46.8027 41.1311 49.9177 41.1311 53.7601C41.1311 57.6025 44.246 60.7175 48.0885 60.7175Z" fill="white"/>
<path d="M67.7865 60.7175C71.6289 60.7175 74.7438 57.6025 74.7438 53.7601C74.7438 49.9177 71.6289 46.8027 67.7865 46.8027C63.944 46.8027 60.8291 49.9177 60.8291 53.7601C60.8291 57.6025 63.944 60.7175 67.7865 60.7175Z" fill="white"/>
</g>
<defs>
<linearGradient id="paint0_linear_2441_19098" x1="71.6803" y1="63.0653" x2="125.707" y2="117.092" gradientUnits="userSpaceOnUse">
<stop stop-color="#B7F0CF"/>
<stop offset="1" stop-color="#81D79D"/>
</linearGradient>
<clipPath id="clip0_2441_19098">
<rect width="111.919" height="107.596" fill="white" transform="translate(4.54053 6.40424)"/>
</clipPath>
</defs>
</svg>
