<svg width="120" height="120" viewBox="0 0 120 120" fill="none" xmlns="http://www.w3.org/2000/svg">
<g clip-path="url(#clip0_2441_19059)">
<mask id="mask0_2441_19059" style="mask-type:luminance" maskUnits="userSpaceOnUse" x="2" y="2" width="116" height="116">
<path d="M118 2H2V118H118V2Z" fill="white"/>
</mask>
<g mask="url(#mask0_2441_19059)">
<path d="M115.734 52.5047C112.73 49.5013 107.856 49.5013 104.853 52.5047L102.166 55.192C101.718 55.6398 100.928 55.2973 100.98 54.665C101.613 40.4911 103.167 25.2896 94.4202 25.2896C91.0743 25.4213 88.4661 28.2667 88.4661 31.6126V26.765C88.4661 23.3137 85.6207 20.521 82.1431 20.6001C78.7709 20.6791 76.1363 23.5508 76.1363 26.8967V30.3216C76.1363 26.8704 73.291 24.0777 69.8133 24.1568C66.4411 24.2358 63.8065 27.1075 63.8065 30.4534V36.6446C63.8065 33.167 60.9348 30.348 57.4045 30.4797C48.3679 30.4797 50.5283 50.8976 50.5283 61.752C50.5283 69.6294 53.8742 78.0864 61.5408 82.8286C60.7241 87.3337 60.4079 90.6005 60.4079 93.4459C60.4079 95.0793 60.5396 96.6337 60.7768 98.2408C61.4617 102.641 65.2819 105.881 69.7343 105.881H82.5119C86.9644 105.881 90.7845 102.641 91.4695 98.2408C91.7066 96.66 91.8383 95.1057 91.8383 93.4459C91.8383 90.5742 91.5222 87.2546 90.6791 82.6705C92.1808 81.6694 93.4981 80.5365 94.631 79.2719C100.032 77.2169 105.011 74.0555 109.174 69.8928L115.707 63.3591C118.711 60.3557 118.711 55.4818 115.707 52.4784L115.734 52.5047Z" fill="#3467DB"/>
<path d="M88.4661 31.6125V48.0259" stroke="white" stroke-width="4.82126" stroke-linecap="round" stroke-linejoin="round"/>
<path d="M76.1362 30.3216V47.0248" stroke="white" stroke-width="4.82126" stroke-linecap="round" stroke-linejoin="round"/>
<path d="M97.8982 82.6178C97.0551 79.6144 93.9727 77.8756 90.9693 78.7186C89.4149 79.1402 86.0163 79.6407 82.3806 79.9305C77.2168 82.2753 73.2386 86.3062 73.95 91.4436C74.6876 91.4436 75.399 91.4699 76.084 91.4699C82.0117 91.4699 90.2052 90.6005 93.9463 89.5467C96.9497 88.7036 98.6885 85.6212 97.8718 82.6178H97.8982Z" fill="#4066D3"/>
<path d="M82.4068 79.9042C80.2728 80.0886 78.0597 80.194 76.1365 80.194C70.92 80.194 63.7277 79.3773 61.2775 78.6923C58.2741 77.8493 55.1917 79.6144 54.3486 82.5915C53.5319 85.5685 55.2444 88.6773 58.2478 89.5204C61.5673 90.4425 68.3382 91.2329 73.9761 91.4173C77.5065 87.7289 80.6679 83.8561 82.3804 79.9042H82.4068Z" fill="#4066D3"/>
<path d="M31.0854 34.7213C28.1346 37.6721 23.3134 37.6721 20.3627 34.7213L15.2516 29.6103C12.3009 26.6596 12.3009 21.8383 15.2516 18.8876C18.2023 15.9369 23.0236 15.9369 25.9743 18.8876L31.0854 23.9987C34.0361 26.9494 34.0361 31.7706 31.0854 34.7213Z" fill="#B0C4FA"/>
<path d="M46.7873 24.71C42.5983 24.71 39.1997 21.3114 39.1997 17.1224V9.90372C39.1997 5.71475 42.5983 2.31616 46.7873 2.31616C50.9762 2.31616 54.3748 5.71475 54.3748 9.90372V17.1224C54.3748 21.3114 50.9762 24.71 46.7873 24.71Z" fill="#3467DB"/>
<path d="M75.7415 70.4197C73.3441 67.8378 69.3132 67.7851 66.863 70.2616L71.2364 65.8883C73.6075 63.5171 73.7656 59.618 71.4472 57.1942C69.0497 54.665 65.0452 54.6387 62.6214 57.0888L65.0452 54.665C67.4163 52.2939 67.5743 48.3947 65.2559 45.9709C62.8585 43.4417 58.8539 43.4154 56.4301 45.8655L53.0052 49.2905C55.3763 46.9194 55.5344 43.0729 53.2686 40.6228C47.0774 34.4315 37.4086 46.2871 27.8451 56.7463C27.4235 57.2205 26.6332 56.9044 26.6332 56.2721V52.452C26.6332 48.2103 23.1819 44.759 18.9402 44.759C14.6986 44.759 11.2473 48.2103 11.2473 52.452V61.6993C11.2473 67.6007 12.5119 73.3441 14.9093 78.6132C14.8303 80.2993 14.9357 82.0382 15.3045 83.8033C11.4844 86.4379 8.92888 88.5719 6.87391 90.6005C5.7147 91.7597 4.71357 92.9453 3.73878 94.2362C1.10421 97.8192 1.4994 102.825 4.66088 105.986L13.6974 115.023C16.8589 118.184 21.8383 118.58 25.4476 115.945C26.7386 114.997 27.9241 113.995 29.0833 112.81C31.0856 110.808 33.1932 108.252 35.8015 104.511C44.5746 106.592 52.8998 102.957 58.4851 97.3977C66.178 89.7047 82.1435 76.8217 75.7415 70.4197Z" fill="#B0C4FA"/>
<path d="M53.0052 49.2378L41.4131 60.8299" stroke="#4066D3" stroke-width="4.82126" stroke-linecap="round" stroke-linejoin="round"/>
<path d="M62.6214 57.0626L50.7922 68.8918" stroke="#4066D3" stroke-width="4.82126" stroke-linecap="round" stroke-linejoin="round"/>
<path d="M66.8632 70.2354L58.6433 78.4553" stroke="#4066D3" stroke-width="4.82126" stroke-linecap="round" stroke-linejoin="round"/>
<path d="M38.9104 101.771C36.6973 100.506 31.033 96.0277 27.3446 92.3393C25.7375 90.7322 23.9987 88.7826 22.4443 86.8857C17.5177 88.4138 18.7823 98.6096 25.6849 105.96C28.5829 108.357 31.4809 110.491 33.4041 111.572C36.1177 113.1 39.5427 112.125 41.0707 109.438C42.5988 106.724 41.6503 103.299 38.9367 101.771H38.9104Z" fill="#3467DB"/>
<path d="M25.6844 105.934C21.5482 100.823 20.547 91.9968 22.4439 86.8594C20.389 84.3829 18.6238 82.0118 17.9125 80.7472C16.3844 78.0336 12.9595 77.0852 10.2459 78.6132C7.53226 80.1413 6.58382 83.5662 8.11187 86.2798C10.0351 89.652 15.1989 96.0804 19.3878 100.269C21.2057 102.087 23.445 104.089 25.6581 105.934H25.6844Z" fill="#3467DB"/>
</g>
</g>
<defs>
<clipPath id="clip0_2441_19059">
<rect width="116" height="116" fill="white" transform="translate(2 2)"/>
</clipPath>
</defs>
</svg>
