<svg width="505" height="69" viewBox="0 0 505 69" fill="none" xmlns="http://www.w3.org/2000/svg">
<path d="M35.0734 53.3323H4.63598C2.07883 53.3323 0 51.2534 0 48.6963V32.8935C0 28.7358 3.385 25.3508 7.54266 25.3508H15.7292V21.5703C15.7292 17.6334 18.9302 14.4231 22.8763 14.4231H36.352C40.1969 14.4231 43.3427 17.4678 43.4899 21.2759H51.6856C54.9327 21.2759 57.5634 23.9159 57.5634 27.1537V37.3363H59.7802C62.3374 37.3363 64.4162 39.4151 64.4162 41.9723V48.963C64.4162 50.0668 63.5239 50.9591 62.4201 50.9591C61.3163 50.9591 60.4241 50.0668 60.4241 48.963V41.9723C60.4241 41.6135 60.1297 41.3192 59.771 41.3192H56.8459C55.043 41.3192 53.5713 39.8474 53.5713 38.0446V27.1445C53.5713 26.1051 52.7251 25.2496 51.6764 25.2496H43.4899V32.5347H33.712V26.3442C33.712 23.5479 35.9932 21.2667 38.7895 21.2667H39.4794C39.3322 19.6662 37.9801 18.406 36.3428 18.406H22.8671C21.1287 18.406 19.7121 19.8226 19.7121 21.5611V25.3416H19.8869C22.628 25.3416 24.854 27.5676 24.854 30.3087V35.5426H15.72V29.3337H7.54266C5.58341 29.3337 3.99209 30.925 3.99209 32.8843V48.6871C3.99209 49.0458 4.28644 49.3402 4.64518 49.3402H35.0734C36.1772 49.3402 37.0694 50.2324 37.0694 51.3362C37.0694 52.44 36.1772 53.3323 35.0734 53.3323ZM19.7121 31.5597H20.8619V30.3087C20.8619 29.7752 20.4204 29.3337 19.8869 29.3337H19.7121V31.5597ZM37.7041 28.561H39.4978V25.268H38.7895C38.1916 25.268 37.7041 25.7555 37.7041 26.3534V28.561Z" fill="#3367DB"/>
<path d="M61.5831 68.5279C60.9116 68.5279 60.2493 68.2703 59.7526 67.7828L51.5477 59.7618H9.59389C8.49008 59.7618 7.59784 58.8696 7.59784 57.7658C7.59784 56.662 8.49008 55.7697 9.59389 55.7697H53.1758L60.2217 62.6593V56.2665C60.2217 55.1626 61.114 54.2704 62.2178 54.2704C63.3216 54.2704 64.2138 55.1626 64.2138 56.2665V65.9063C64.2138 66.9642 63.5791 67.9116 62.6041 68.3255C62.2729 68.4635 61.9234 68.5279 61.5831 68.5279Z" fill="#3367DB"/>
<path d="M49.1377 11.2221C50.7474 11.2221 52.0536 12.5283 52.0536 14.138C52.0536 15.7477 50.7474 17.0539 49.1377 17.0539C47.528 17.0539 46.2218 15.7477 46.2218 14.138C46.2218 12.5283 47.528 11.2221 49.1377 11.2221ZM49.1377 8.39821C45.9735 8.39821 43.3979 10.9738 43.3979 14.138C43.3979 17.3022 45.9735 19.8778 49.1377 19.8778C52.302 19.8778 54.8775 17.3022 54.8775 14.138C54.8775 10.9738 52.302 8.39821 49.1377 8.39821Z" fill="#3367DB"/>
<path d="M9.40072 16.9158C10.5965 16.9158 11.5715 17.8909 11.5715 19.0867C11.5715 20.2825 10.5965 21.2575 9.40072 21.2575C8.20494 21.2575 7.22991 20.2825 7.22991 19.0867C7.22991 17.8909 8.20494 16.9158 9.40072 16.9158ZM9.40072 14C6.59522 14 4.31403 16.2812 4.31403 19.0867C4.31403 21.8922 6.59522 24.1734 9.40072 24.1734C12.2062 24.1734 14.4874 21.8922 14.4874 19.0867C14.4874 16.2812 12.2062 14 9.40072 14Z" fill="#3367DB"/>
<path d="M29.5544 2.80554C31.6884 2.80554 33.4177 4.53483 33.4177 6.66885C33.4177 8.80287 31.6884 10.5322 29.5544 10.5322C27.4204 10.5322 25.6911 8.80287 25.6911 6.66885C25.6911 4.53483 27.4204 2.80554 29.5544 2.80554ZM29.5544 3.43323e-05C25.8842 3.43323e-05 22.8948 2.9895 22.8948 6.65965C22.8948 10.3298 25.8842 13.3193 29.5544 13.3193C33.2245 13.3193 36.214 10.3298 36.214 6.65965C36.214 2.9895 33.2245 3.43323e-05 29.5544 3.43323e-05Z" fill="#3367DB"/>
<path d="M3.34826 60.2309C4.75037 60.2309 5.88701 59.0942 5.88701 57.6921C5.88701 56.29 4.75037 55.1534 3.34826 55.1534C1.94615 55.1534 0.809509 56.29 0.809509 57.6921C0.809509 59.0942 1.94615 60.2309 3.34826 60.2309Z" fill="#3367DB"/>
<path d="M86.1719 26.25H90.1406L95.9844 42.9531L101.828 26.25H105.797L97.5781 49H94.3906L86.1719 26.25ZM84.0312 26.25H87.9844L88.7031 42.5312V49H84.0312V26.25ZM103.984 26.25H107.953V49H103.266V42.5312L103.984 26.25ZM116.531 32.0938V49H112.016V32.0938H116.531ZM111.734 27.6875C111.734 27.0312 111.964 26.4896 112.422 26.0625C112.88 25.6354 113.495 25.4219 114.266 25.4219C115.026 25.4219 115.635 25.6354 116.094 26.0625C116.562 26.4896 116.797 27.0312 116.797 27.6875C116.797 28.3438 116.562 28.8854 116.094 29.3125C115.635 29.7396 115.026 29.9531 114.266 29.9531C113.495 29.9531 112.88 29.7396 112.422 29.3125C111.964 28.8854 111.734 28.3438 111.734 27.6875ZM124.656 35.7031V49H120.156V32.0938H124.375L124.656 35.7031ZM124 39.9531H122.781C122.781 38.7031 122.943 37.5781 123.266 36.5781C123.589 35.5677 124.042 34.7083 124.625 34C125.208 33.2812 125.901 32.7344 126.703 32.3594C127.516 31.974 128.422 31.7812 129.422 31.7812C130.214 31.7812 130.938 31.8958 131.594 32.125C132.25 32.3542 132.812 32.7188 133.281 33.2188C133.76 33.7188 134.125 34.3802 134.375 35.2031C134.635 36.026 134.766 37.0312 134.766 38.2188V49H130.234V38.2031C130.234 37.4531 130.13 36.8698 129.922 36.4531C129.714 36.0365 129.406 35.7448 129 35.5781C128.604 35.401 128.115 35.3125 127.531 35.3125C126.927 35.3125 126.401 35.4323 125.953 35.6719C125.516 35.9115 125.151 36.2448 124.859 36.6719C124.578 37.0885 124.365 37.5781 124.219 38.1406C124.073 38.7031 124 39.3073 124 39.9531ZM148.172 45.3125V25H152.703V49H148.625L148.172 45.3125ZM137.484 40.75V40.4219C137.484 39.1302 137.63 37.9583 137.922 36.9062C138.214 35.8438 138.641 34.9323 139.203 34.1719C139.766 33.4115 140.458 32.8229 141.281 32.4062C142.104 31.9896 143.042 31.7812 144.094 31.7812C145.083 31.7812 145.948 31.9896 146.688 32.4062C147.438 32.8229 148.073 33.4167 148.594 34.1875C149.125 34.9479 149.552 35.849 149.875 36.8906C150.198 37.9219 150.432 39.0521 150.578 40.2812V41C150.432 42.1771 150.198 43.2708 149.875 44.2812C149.552 45.2917 149.125 46.1771 148.594 46.9375C148.073 47.6875 147.438 48.2708 146.688 48.6875C145.938 49.1042 145.062 49.3125 144.062 49.3125C143.01 49.3125 142.073 49.099 141.25 48.6719C140.438 48.2448 139.75 47.6458 139.188 46.875C138.635 46.1042 138.214 45.1979 137.922 44.1562C137.63 43.1146 137.484 41.9792 137.484 40.75ZM141.984 40.4219V40.75C141.984 41.4479 142.036 42.099 142.141 42.7031C142.255 43.3073 142.438 43.8438 142.688 44.3125C142.948 44.7708 143.281 45.1302 143.688 45.3906C144.104 45.6406 144.609 45.7656 145.203 45.7656C145.974 45.7656 146.609 45.5938 147.109 45.25C147.609 44.8958 147.99 44.4115 148.25 43.7969C148.521 43.1823 148.677 42.474 148.719 41.6719V39.625C148.688 38.9688 148.594 38.3802 148.438 37.8594C148.292 37.3281 148.073 36.875 147.781 36.5C147.5 36.125 147.146 35.8333 146.719 35.625C146.302 35.4167 145.807 35.3125 145.234 35.3125C144.651 35.3125 144.151 35.4479 143.734 35.7188C143.318 35.9792 142.979 36.3385 142.719 36.7969C142.469 37.2552 142.281 37.7969 142.156 38.4219C142.042 39.0365 141.984 39.7031 141.984 40.4219ZM165.359 44.3281C165.359 44.0052 165.266 43.7135 165.078 43.4531C164.891 43.1927 164.542 42.9531 164.031 42.7344C163.531 42.5052 162.807 42.2969 161.859 42.1094C161.005 41.9219 160.208 41.6875 159.469 41.4062C158.74 41.1146 158.104 40.7656 157.562 40.3594C157.031 39.9531 156.615 39.474 156.312 38.9219C156.01 38.3594 155.859 37.7188 155.859 37C155.859 36.2917 156.01 35.625 156.312 35C156.625 34.375 157.068 33.8229 157.641 33.3438C158.224 32.8542 158.932 32.474 159.766 32.2031C160.609 31.9219 161.557 31.7812 162.609 31.7812C164.078 31.7812 165.339 32.0156 166.391 32.4844C167.453 32.9531 168.266 33.599 168.828 34.4219C169.401 35.2344 169.688 36.1615 169.688 37.2031H165.188C165.188 36.7656 165.094 36.375 164.906 36.0312C164.729 35.6771 164.448 35.401 164.062 35.2031C163.688 34.9948 163.198 34.8906 162.594 34.8906C162.094 34.8906 161.661 34.9792 161.297 35.1562C160.932 35.3229 160.651 35.5521 160.453 35.8438C160.266 36.125 160.172 36.4375 160.172 36.7812C160.172 37.0417 160.224 37.276 160.328 37.4844C160.443 37.6823 160.625 37.8646 160.875 38.0312C161.125 38.1979 161.448 38.3542 161.844 38.5C162.25 38.6354 162.75 38.7604 163.344 38.875C164.562 39.125 165.651 39.4531 166.609 39.8594C167.568 40.2552 168.328 40.7969 168.891 41.4844C169.453 42.1615 169.734 43.0521 169.734 44.1562C169.734 44.9062 169.568 45.5938 169.234 46.2188C168.901 46.8438 168.422 47.3906 167.797 47.8594C167.172 48.3177 166.422 48.6771 165.547 48.9375C164.682 49.1875 163.708 49.3125 162.625 49.3125C161.052 49.3125 159.719 49.0312 158.625 48.4688C157.542 47.9062 156.719 47.1927 156.156 46.3281C155.604 45.4531 155.328 44.5573 155.328 43.6406H159.594C159.615 44.2552 159.771 44.75 160.062 45.125C160.365 45.5 160.745 45.7708 161.203 45.9375C161.672 46.1042 162.177 46.1875 162.719 46.1875C163.302 46.1875 163.786 46.1094 164.172 45.9531C164.557 45.7865 164.849 45.5677 165.047 45.2969C165.255 45.0156 165.359 44.6927 165.359 44.3281ZM180.438 49.3125C179.125 49.3125 177.948 49.1042 176.906 48.6875C175.865 48.2604 174.979 47.6719 174.25 46.9219C173.531 46.1719 172.979 45.3021 172.594 44.3125C172.208 43.3125 172.016 42.25 172.016 41.125V40.5C172.016 39.2188 172.198 38.0469 172.562 36.9844C172.927 35.9219 173.448 35 174.125 34.2188C174.812 33.4375 175.646 32.8385 176.625 32.4219C177.604 31.9948 178.708 31.7812 179.938 31.7812C181.135 31.7812 182.198 31.9792 183.125 32.375C184.052 32.7708 184.828 33.3333 185.453 34.0625C186.089 34.7917 186.568 35.6667 186.891 36.6875C187.214 37.6979 187.375 38.8229 187.375 40.0625V41.9375H173.938V38.9375H182.953V38.5938C182.953 37.9688 182.839 37.4115 182.609 36.9219C182.391 36.4219 182.057 36.026 181.609 35.7344C181.161 35.4427 180.589 35.2969 179.891 35.2969C179.297 35.2969 178.786 35.4271 178.359 35.6875C177.932 35.9479 177.583 36.3125 177.312 36.7812C177.052 37.25 176.854 37.8021 176.719 38.4375C176.594 39.0625 176.531 39.75 176.531 40.5V41.125C176.531 41.8021 176.625 42.4271 176.812 43C177.01 43.5729 177.286 44.0677 177.641 44.4844C178.005 44.901 178.443 45.224 178.953 45.4531C179.474 45.6823 180.062 45.7969 180.719 45.7969C181.531 45.7969 182.286 45.6406 182.984 45.3281C183.693 45.0052 184.302 44.5208 184.812 43.875L187 46.25C186.646 46.7604 186.161 47.25 185.547 47.7188C184.943 48.1875 184.214 48.5729 183.359 48.875C182.505 49.1667 181.531 49.3125 180.438 49.3125ZM198.219 32.0938V35.2812H188.375V32.0938H198.219ZM190.812 27.9219H195.312V43.9062C195.312 44.3958 195.375 44.7708 195.5 45.0312C195.635 45.2917 195.833 45.474 196.094 45.5781C196.354 45.6719 196.682 45.7188 197.078 45.7188C197.359 45.7188 197.609 45.7083 197.828 45.6875C198.057 45.6562 198.25 45.625 198.406 45.5938L198.422 48.9062C198.036 49.0312 197.62 49.1302 197.172 49.2031C196.724 49.276 196.229 49.3125 195.688 49.3125C194.698 49.3125 193.833 49.151 193.094 48.8281C192.365 48.4948 191.802 47.9635 191.406 47.2344C191.01 46.5052 190.812 45.5469 190.812 44.3594V27.9219ZM205.281 35.5938V49H200.766V32.0938H205L205.281 35.5938ZM204.656 39.9531H203.406C203.406 38.776 203.547 37.6927 203.828 36.7031C204.12 35.7031 204.542 34.8385 205.094 34.1094C205.656 33.3698 206.349 32.7969 207.172 32.3906C207.995 31.9844 208.948 31.7812 210.031 31.7812C210.781 31.7812 211.469 31.8958 212.094 32.125C212.719 32.3438 213.255 32.6927 213.703 33.1719C214.161 33.6406 214.516 34.2552 214.766 35.0156C215.016 35.7656 215.141 36.6667 215.141 37.7188V49H210.641V38.2188C210.641 37.4479 210.536 36.8542 210.328 36.4375C210.12 36.0208 209.823 35.7292 209.438 35.5625C209.062 35.3958 208.609 35.3125 208.078 35.3125C207.495 35.3125 206.984 35.4323 206.547 35.6719C206.12 35.9115 205.766 36.2448 205.484 36.6719C205.203 37.0885 204.995 37.5781 204.859 38.1406C204.724 38.7031 204.656 39.3073 204.656 39.9531ZM214.719 39.4375L213.109 39.6406C213.109 38.5365 213.245 37.5104 213.516 36.5625C213.797 35.6146 214.208 34.7812 214.75 34.0625C215.302 33.3438 215.984 32.7865 216.797 32.3906C217.609 31.9844 218.547 31.7812 219.609 31.7812C220.422 31.7812 221.161 31.901 221.828 32.1406C222.495 32.3698 223.062 32.7396 223.531 33.25C224.01 33.75 224.375 34.4062 224.625 35.2188C224.885 36.0312 225.016 37.026 225.016 38.2031V49H220.5V38.2031C220.5 37.4219 220.396 36.8281 220.188 36.4219C219.99 36.0052 219.698 35.7188 219.312 35.5625C218.938 35.3958 218.49 35.3125 217.969 35.3125C217.427 35.3125 216.953 35.4219 216.547 35.6406C216.141 35.849 215.802 36.1406 215.531 36.5156C215.26 36.8906 215.057 37.3281 214.922 37.8281C214.786 38.3177 214.719 38.8542 214.719 39.4375ZM237.625 45.1875V37.6562C237.625 37.1146 237.536 36.651 237.359 36.2656C237.182 35.8698 236.906 35.5625 236.531 35.3438C236.167 35.125 235.693 35.0156 235.109 35.0156C234.609 35.0156 234.177 35.1042 233.812 35.2812C233.448 35.4479 233.167 35.6927 232.969 36.0156C232.771 36.3281 232.672 36.6979 232.672 37.125H228.172C228.172 36.4062 228.339 35.724 228.672 35.0781C229.005 34.4323 229.49 33.8646 230.125 33.375C230.76 32.875 231.516 32.4844 232.391 32.2031C233.276 31.9219 234.266 31.7812 235.359 31.7812C236.672 31.7812 237.839 32 238.859 32.4375C239.88 32.875 240.682 33.5312 241.266 34.4062C241.859 35.2812 242.156 36.375 242.156 37.6875V44.9219C242.156 45.849 242.214 46.6094 242.328 47.2031C242.443 47.7865 242.609 48.2969 242.828 48.7344V49H238.281C238.062 48.5417 237.896 47.9688 237.781 47.2812C237.677 46.5833 237.625 45.8854 237.625 45.1875ZM238.219 38.7031L238.25 41.25H235.734C235.141 41.25 234.625 41.3177 234.188 41.4531C233.75 41.5885 233.391 41.7812 233.109 42.0312C232.828 42.2708 232.62 42.5521 232.484 42.875C232.359 43.1979 232.297 43.5521 232.297 43.9375C232.297 44.3229 232.385 44.6719 232.562 44.9844C232.74 45.2865 232.995 45.526 233.328 45.7031C233.661 45.8698 234.052 45.9531 234.5 45.9531C235.177 45.9531 235.766 45.8177 236.266 45.5469C236.766 45.276 237.151 44.9427 237.422 44.5469C237.703 44.151 237.849 43.776 237.859 43.4219L239.047 45.3281C238.88 45.7552 238.651 46.1979 238.359 46.6562C238.078 47.1146 237.719 47.5469 237.281 47.9531C236.844 48.349 236.318 48.6771 235.703 48.9375C235.089 49.1875 234.359 49.3125 233.516 49.3125C232.443 49.3125 231.469 49.099 230.594 48.6719C229.729 48.2344 229.042 47.6354 228.531 46.875C228.031 46.1042 227.781 45.2292 227.781 44.25C227.781 43.3646 227.948 42.5781 228.281 41.8906C228.615 41.2031 229.104 40.625 229.75 40.1562C230.406 39.6771 231.224 39.3177 232.203 39.0781C233.182 38.8281 234.318 38.7031 235.609 38.7031H238.219ZM250.125 24.9844V49H245.625V24.9844H250.125ZM260.781 32.0938L253.438 40.4688L249.5 44.4531L247.859 41.2031L250.984 37.2344L255.375 32.0938H260.781ZM256.109 49L251.109 41.1875L254.219 38.4688L261.297 49H256.109ZM270.188 49.3125C268.875 49.3125 267.698 49.1042 266.656 48.6875C265.615 48.2604 264.729 47.6719 264 46.9219C263.281 46.1719 262.729 45.3021 262.344 44.3125C261.958 43.3125 261.766 42.25 261.766 41.125V40.5C261.766 39.2188 261.948 38.0469 262.312 36.9844C262.677 35.9219 263.198 35 263.875 34.2188C264.562 33.4375 265.396 32.8385 266.375 32.4219C267.354 31.9948 268.458 31.7812 269.688 31.7812C270.885 31.7812 271.948 31.9792 272.875 32.375C273.802 32.7708 274.578 33.3333 275.203 34.0625C275.839 34.7917 276.318 35.6667 276.641 36.6875C276.964 37.6979 277.125 38.8229 277.125 40.0625V41.9375H263.688V38.9375H272.703V38.5938C272.703 37.9688 272.589 37.4115 272.359 36.9219C272.141 36.4219 271.807 36.026 271.359 35.7344C270.911 35.4427 270.339 35.2969 269.641 35.2969C269.047 35.2969 268.536 35.4271 268.109 35.6875C267.682 35.9479 267.333 36.3125 267.062 36.7812C266.802 37.25 266.604 37.8021 266.469 38.4375C266.344 39.0625 266.281 39.75 266.281 40.5V41.125C266.281 41.8021 266.375 42.4271 266.562 43C266.76 43.5729 267.036 44.0677 267.391 44.4844C267.755 44.901 268.193 45.224 268.703 45.4531C269.224 45.6823 269.812 45.7969 270.469 45.7969C271.281 45.7969 272.036 45.6406 272.734 45.3281C273.443 45.0052 274.052 44.5208 274.562 43.875L276.75 46.25C276.396 46.7604 275.911 47.25 275.297 47.7188C274.693 48.1875 273.964 48.5729 273.109 48.875C272.255 49.1667 271.281 49.3125 270.188 49.3125ZM284.188 35.7812V49H279.688V32.0938H283.922L284.188 35.7812ZM289.281 31.9844L289.203 36.1562C288.984 36.125 288.719 36.099 288.406 36.0781C288.104 36.0469 287.828 36.0312 287.578 36.0312C286.943 36.0312 286.391 36.1146 285.922 36.2812C285.464 36.4375 285.078 36.6719 284.766 36.9844C284.464 37.2969 284.234 37.6771 284.078 38.125C283.932 38.5729 283.849 39.0833 283.828 39.6562L282.922 39.375C282.922 38.2812 283.031 37.276 283.25 36.3594C283.469 35.4323 283.786 34.625 284.203 33.9375C284.63 33.25 285.151 32.7188 285.766 32.3438C286.38 31.9688 287.083 31.7812 287.875 31.7812C288.125 31.7812 288.38 31.8021 288.641 31.8438C288.901 31.875 289.115 31.9219 289.281 31.9844ZM304.344 26.25V49H299.656V26.25H304.344ZM313.406 35.9688V39.625H303.062V35.9688H313.406ZM314.5 26.25V29.9219H303.062V26.25H314.5ZM315.875 40.7188V40.3906C315.875 39.151 316.052 38.0104 316.406 36.9688C316.76 35.9167 317.276 35.0052 317.953 34.2344C318.63 33.4635 319.464 32.8646 320.453 32.4375C321.443 32 322.578 31.7812 323.859 31.7812C325.141 31.7812 326.281 32 327.281 32.4375C328.281 32.8646 329.12 33.4635 329.797 34.2344C330.484 35.0052 331.005 35.9167 331.359 36.9688C331.714 38.0104 331.891 39.151 331.891 40.3906V40.7188C331.891 41.9479 331.714 43.0885 331.359 44.1406C331.005 45.1823 330.484 46.0938 329.797 46.875C329.12 47.6458 328.286 48.2448 327.297 48.6719C326.307 49.099 325.172 49.3125 323.891 49.3125C322.609 49.3125 321.469 49.099 320.469 48.6719C319.479 48.2448 318.641 47.6458 317.953 46.875C317.276 46.0938 316.76 45.1823 316.406 44.1406C316.052 43.0885 315.875 41.9479 315.875 40.7188ZM320.375 40.3906V40.7188C320.375 41.4271 320.438 42.0885 320.562 42.7031C320.688 43.3177 320.885 43.8594 321.156 44.3281C321.438 44.7865 321.802 45.1458 322.25 45.4062C322.698 45.6667 323.245 45.7969 323.891 45.7969C324.516 45.7969 325.052 45.6667 325.5 45.4062C325.948 45.1458 326.307 44.7865 326.578 44.3281C326.849 43.8594 327.047 43.3177 327.172 42.7031C327.307 42.0885 327.375 41.4271 327.375 40.7188V40.3906C327.375 39.7031 327.307 39.0573 327.172 38.4531C327.047 37.8385 326.844 37.2969 326.562 36.8281C326.292 36.349 325.932 35.974 325.484 35.7031C325.036 35.4323 324.495 35.2969 323.859 35.2969C323.224 35.2969 322.682 35.4323 322.234 35.7031C321.797 35.974 321.438 36.349 321.156 36.8281C320.885 37.2969 320.688 37.8385 320.562 38.4531C320.438 39.0573 320.375 39.7031 320.375 40.3906ZM339.156 35.7812V49H334.656V32.0938H338.891L339.156 35.7812ZM344.25 31.9844L344.172 36.1562C343.953 36.125 343.688 36.099 343.375 36.0781C343.073 36.0469 342.797 36.0312 342.547 36.0312C341.911 36.0312 341.359 36.1146 340.891 36.2812C340.432 36.4375 340.047 36.6719 339.734 36.9844C339.432 37.2969 339.203 37.6771 339.047 38.125C338.901 38.5729 338.818 39.0833 338.797 39.6562L337.891 39.375C337.891 38.2812 338 37.276 338.219 36.3594C338.438 35.4323 338.755 34.625 339.172 33.9375C339.599 33.25 340.12 32.7188 340.734 32.3438C341.349 31.9688 342.052 31.7812 342.844 31.7812C343.094 31.7812 343.349 31.8021 343.609 31.8438C343.87 31.875 344.083 31.9219 344.25 31.9844ZM369.797 35.5156V39.1719H357.922V35.5156H369.797ZM359.312 26.25V49H354.625V26.25H359.312ZM373.141 26.25V49H368.469V26.25H373.141ZM386.062 45.1875V37.6562C386.062 37.1146 385.974 36.651 385.797 36.2656C385.62 35.8698 385.344 35.5625 384.969 35.3438C384.604 35.125 384.13 35.0156 383.547 35.0156C383.047 35.0156 382.615 35.1042 382.25 35.2812C381.885 35.4479 381.604 35.6927 381.406 36.0156C381.208 36.3281 381.109 36.6979 381.109 37.125H376.609C376.609 36.4062 376.776 35.724 377.109 35.0781C377.443 34.4323 377.927 33.8646 378.562 33.375C379.198 32.875 379.953 32.4844 380.828 32.2031C381.714 31.9219 382.703 31.7812 383.797 31.7812C385.109 31.7812 386.276 32 387.297 32.4375C388.318 32.875 389.12 33.5312 389.703 34.4062C390.297 35.2812 390.594 36.375 390.594 37.6875V44.9219C390.594 45.849 390.651 46.6094 390.766 47.2031C390.88 47.7865 391.047 48.2969 391.266 48.7344V49H386.719C386.5 48.5417 386.333 47.9688 386.219 47.2812C386.115 46.5833 386.062 45.8854 386.062 45.1875ZM386.656 38.7031L386.688 41.25H384.172C383.578 41.25 383.062 41.3177 382.625 41.4531C382.188 41.5885 381.828 41.7812 381.547 42.0312C381.266 42.2708 381.057 42.5521 380.922 42.875C380.797 43.1979 380.734 43.5521 380.734 43.9375C380.734 44.3229 380.823 44.6719 381 44.9844C381.177 45.2865 381.432 45.526 381.766 45.7031C382.099 45.8698 382.49 45.9531 382.938 45.9531C383.615 45.9531 384.203 45.8177 384.703 45.5469C385.203 45.276 385.589 44.9427 385.859 44.5469C386.141 44.151 386.286 43.776 386.297 43.4219L387.484 45.3281C387.318 45.7552 387.089 46.1979 386.797 46.6562C386.516 47.1146 386.156 47.5469 385.719 47.9531C385.281 48.349 384.755 48.6771 384.141 48.9375C383.526 49.1875 382.797 49.3125 381.953 49.3125C380.88 49.3125 379.906 49.099 379.031 48.6719C378.167 48.2344 377.479 47.6354 376.969 46.875C376.469 46.1042 376.219 45.2292 376.219 44.25C376.219 43.3646 376.385 42.5781 376.719 41.8906C377.052 41.2031 377.542 40.625 378.188 40.1562C378.844 39.6771 379.661 39.3177 380.641 39.0781C381.62 38.8281 382.755 38.7031 384.047 38.7031H386.656ZM398.562 35.3438V55.5H394.062V32.0938H398.234L398.562 35.3438ZM409.266 40.3594V40.6875C409.266 41.9167 409.12 43.0573 408.828 44.1094C408.547 45.1615 408.13 46.0781 407.578 46.8594C407.026 47.6302 406.339 48.2344 405.516 48.6719C404.703 49.099 403.766 49.3125 402.703 49.3125C401.672 49.3125 400.776 49.1042 400.016 48.6875C399.255 48.2708 398.615 47.6875 398.094 46.9375C397.583 46.1771 397.172 45.2969 396.859 44.2969C396.547 43.2969 396.307 42.224 396.141 41.0781V40.2188C396.307 38.9896 396.547 37.8646 396.859 36.8438C397.172 35.8125 397.583 34.9219 398.094 34.1719C398.615 33.4115 399.25 32.8229 400 32.4062C400.76 31.9896 401.651 31.7812 402.672 31.7812C403.745 31.7812 404.688 31.9844 405.5 32.3906C406.323 32.7969 407.01 33.3802 407.562 34.1406C408.125 34.901 408.547 35.8073 408.828 36.8594C409.12 37.9115 409.266 39.0781 409.266 40.3594ZM404.75 40.6875V40.3594C404.75 39.6406 404.688 38.9792 404.562 38.375C404.448 37.7604 404.26 37.224 404 36.7656C403.75 36.3073 403.417 35.9531 403 35.7031C402.594 35.4427 402.099 35.3125 401.516 35.3125C400.901 35.3125 400.375 35.4115 399.938 35.6094C399.51 35.8073 399.161 36.0938 398.891 36.4688C398.62 36.8438 398.417 37.2917 398.281 37.8125C398.146 38.3333 398.062 38.9219 398.031 39.5781V41.75C398.083 42.5208 398.229 43.2135 398.469 43.8281C398.708 44.4323 399.078 44.9115 399.578 45.2656C400.078 45.6198 400.734 45.7969 401.547 45.7969C402.141 45.7969 402.641 45.6667 403.047 45.4062C403.453 45.1354 403.781 44.7656 404.031 44.2969C404.292 43.8281 404.474 43.2865 404.578 42.6719C404.693 42.0573 404.75 41.3958 404.75 40.6875ZM416.562 35.3438V55.5H412.062V32.0938H416.234L416.562 35.3438ZM427.266 40.3594V40.6875C427.266 41.9167 427.12 43.0573 426.828 44.1094C426.547 45.1615 426.13 46.0781 425.578 46.8594C425.026 47.6302 424.339 48.2344 423.516 48.6719C422.703 49.099 421.766 49.3125 420.703 49.3125C419.672 49.3125 418.776 49.1042 418.016 48.6875C417.255 48.2708 416.615 47.6875 416.094 46.9375C415.583 46.1771 415.172 45.2969 414.859 44.2969C414.547 43.2969 414.307 42.224 414.141 41.0781V40.2188C414.307 38.9896 414.547 37.8646 414.859 36.8438C415.172 35.8125 415.583 34.9219 416.094 34.1719C416.615 33.4115 417.25 32.8229 418 32.4062C418.76 31.9896 419.651 31.7812 420.672 31.7812C421.745 31.7812 422.688 31.9844 423.5 32.3906C424.323 32.7969 425.01 33.3802 425.562 34.1406C426.125 34.901 426.547 35.8073 426.828 36.8594C427.12 37.9115 427.266 39.0781 427.266 40.3594ZM422.75 40.6875V40.3594C422.75 39.6406 422.688 38.9792 422.562 38.375C422.448 37.7604 422.26 37.224 422 36.7656C421.75 36.3073 421.417 35.9531 421 35.7031C420.594 35.4427 420.099 35.3125 419.516 35.3125C418.901 35.3125 418.375 35.4115 417.938 35.6094C417.51 35.8073 417.161 36.0938 416.891 36.4688C416.62 36.8438 416.417 37.2917 416.281 37.8125C416.146 38.3333 416.062 38.9219 416.031 39.5781V41.75C416.083 42.5208 416.229 43.2135 416.469 43.8281C416.708 44.4323 417.078 44.9115 417.578 45.2656C418.078 45.6198 418.734 45.7969 419.547 45.7969C420.141 45.7969 420.641 45.6667 421.047 45.4062C421.453 45.1354 421.781 44.7656 422.031 44.2969C422.292 43.8281 422.474 43.2865 422.578 42.6719C422.693 42.0573 422.75 41.3958 422.75 40.6875ZM434.812 32.0938V49H430.297V32.0938H434.812ZM430.016 27.6875C430.016 27.0312 430.245 26.4896 430.703 26.0625C431.161 25.6354 431.776 25.4219 432.547 25.4219C433.307 25.4219 433.917 25.6354 434.375 26.0625C434.844 26.4896 435.078 27.0312 435.078 27.6875C435.078 28.3438 434.844 28.8854 434.375 29.3125C433.917 29.7396 433.307 29.9531 432.547 29.9531C431.776 29.9531 431.161 29.7396 430.703 29.3125C430.245 28.8854 430.016 28.3438 430.016 27.6875ZM442.938 35.7031V49H438.438V32.0938H442.656L442.938 35.7031ZM442.281 39.9531H441.062C441.062 38.7031 441.224 37.5781 441.547 36.5781C441.87 35.5677 442.323 34.7083 442.906 34C443.49 33.2812 444.182 32.7344 444.984 32.3594C445.797 31.974 446.703 31.7812 447.703 31.7812C448.495 31.7812 449.219 31.8958 449.875 32.125C450.531 32.3542 451.094 32.7188 451.562 33.2188C452.042 33.7188 452.406 34.3802 452.656 35.2031C452.917 36.026 453.047 37.0312 453.047 38.2188V49H448.516V38.2031C448.516 37.4531 448.411 36.8698 448.203 36.4531C447.995 36.0365 447.688 35.7448 447.281 35.5781C446.885 35.401 446.396 35.3125 445.812 35.3125C445.208 35.3125 444.682 35.4323 444.234 35.6719C443.797 35.9115 443.432 36.2448 443.141 36.6719C442.859 37.0885 442.646 37.5781 442.5 38.1406C442.354 38.7031 442.281 39.3073 442.281 39.9531ZM464.25 49.3125C462.938 49.3125 461.76 49.1042 460.719 48.6875C459.677 48.2604 458.792 47.6719 458.062 46.9219C457.344 46.1719 456.792 45.3021 456.406 44.3125C456.021 43.3125 455.828 42.25 455.828 41.125V40.5C455.828 39.2188 456.01 38.0469 456.375 36.9844C456.74 35.9219 457.26 35 457.938 34.2188C458.625 33.4375 459.458 32.8385 460.438 32.4219C461.417 31.9948 462.521 31.7812 463.75 31.7812C464.948 31.7812 466.01 31.9792 466.938 32.375C467.865 32.7708 468.641 33.3333 469.266 34.0625C469.901 34.7917 470.38 35.6667 470.703 36.6875C471.026 37.6979 471.188 38.8229 471.188 40.0625V41.9375H457.75V38.9375H466.766V38.5938C466.766 37.9688 466.651 37.4115 466.422 36.9219C466.203 36.4219 465.87 36.026 465.422 35.7344C464.974 35.4427 464.401 35.2969 463.703 35.2969C463.109 35.2969 462.599 35.4271 462.172 35.6875C461.745 35.9479 461.396 36.3125 461.125 36.7812C460.865 37.25 460.667 37.8021 460.531 38.4375C460.406 39.0625 460.344 39.75 460.344 40.5V41.125C460.344 41.8021 460.438 42.4271 460.625 43C460.823 43.5729 461.099 44.0677 461.453 44.4844C461.818 44.901 462.255 45.224 462.766 45.4531C463.286 45.6823 463.875 45.7969 464.531 45.7969C465.344 45.7969 466.099 45.6406 466.797 45.3281C467.505 45.0052 468.115 44.5208 468.625 43.875L470.812 46.25C470.458 46.7604 469.974 47.25 469.359 47.7188C468.755 48.1875 468.026 48.5729 467.172 48.875C466.318 49.1667 465.344 49.3125 464.25 49.3125ZM482.891 44.3281C482.891 44.0052 482.797 43.7135 482.609 43.4531C482.422 43.1927 482.073 42.9531 481.562 42.7344C481.062 42.5052 480.339 42.2969 479.391 42.1094C478.536 41.9219 477.74 41.6875 477 41.4062C476.271 41.1146 475.635 40.7656 475.094 40.3594C474.562 39.9531 474.146 39.474 473.844 38.9219C473.542 38.3594 473.391 37.7188 473.391 37C473.391 36.2917 473.542 35.625 473.844 35C474.156 34.375 474.599 33.8229 475.172 33.3438C475.755 32.8542 476.464 32.474 477.297 32.2031C478.141 31.9219 479.089 31.7812 480.141 31.7812C481.609 31.7812 482.87 32.0156 483.922 32.4844C484.984 32.9531 485.797 33.599 486.359 34.4219C486.932 35.2344 487.219 36.1615 487.219 37.2031H482.719C482.719 36.7656 482.625 36.375 482.438 36.0312C482.26 35.6771 481.979 35.401 481.594 35.2031C481.219 34.9948 480.729 34.8906 480.125 34.8906C479.625 34.8906 479.193 34.9792 478.828 35.1562C478.464 35.3229 478.182 35.5521 477.984 35.8438C477.797 36.125 477.703 36.4375 477.703 36.7812C477.703 37.0417 477.755 37.276 477.859 37.4844C477.974 37.6823 478.156 37.8646 478.406 38.0312C478.656 38.1979 478.979 38.3542 479.375 38.5C479.781 38.6354 480.281 38.7604 480.875 38.875C482.094 39.125 483.182 39.4531 484.141 39.8594C485.099 40.2552 485.859 40.7969 486.422 41.4844C486.984 42.1615 487.266 43.0521 487.266 44.1562C487.266 44.9062 487.099 45.5938 486.766 46.2188C486.432 46.8438 485.953 47.3906 485.328 47.8594C484.703 48.3177 483.953 48.6771 483.078 48.9375C482.214 49.1875 481.24 49.3125 480.156 49.3125C478.583 49.3125 477.25 49.0312 476.156 48.4688C475.073 47.9062 474.25 47.1927 473.688 46.3281C473.135 45.4531 472.859 44.5573 472.859 43.6406H477.125C477.146 44.2552 477.302 44.75 477.594 45.125C477.896 45.5 478.276 45.7708 478.734 45.9375C479.203 46.1042 479.708 46.1875 480.25 46.1875C480.833 46.1875 481.318 46.1094 481.703 45.9531C482.089 45.7865 482.38 45.5677 482.578 45.2969C482.786 45.0156 482.891 44.6927 482.891 44.3281ZM499.328 44.3281C499.328 44.0052 499.234 43.7135 499.047 43.4531C498.859 43.1927 498.51 42.9531 498 42.7344C497.5 42.5052 496.776 42.2969 495.828 42.1094C494.974 41.9219 494.177 41.6875 493.438 41.4062C492.708 41.1146 492.073 40.7656 491.531 40.3594C491 39.9531 490.583 39.474 490.281 38.9219C489.979 38.3594 489.828 37.7188 489.828 37C489.828 36.2917 489.979 35.625 490.281 35C490.594 34.375 491.036 33.8229 491.609 33.3438C492.193 32.8542 492.901 32.474 493.734 32.2031C494.578 31.9219 495.526 31.7812 496.578 31.7812C498.047 31.7812 499.307 32.0156 500.359 32.4844C501.422 32.9531 502.234 33.599 502.797 34.4219C503.37 35.2344 503.656 36.1615 503.656 37.2031H499.156C499.156 36.7656 499.062 36.375 498.875 36.0312C498.698 35.6771 498.417 35.401 498.031 35.2031C497.656 34.9948 497.167 34.8906 496.562 34.8906C496.062 34.8906 495.63 34.9792 495.266 35.1562C494.901 35.3229 494.62 35.5521 494.422 35.8438C494.234 36.125 494.141 36.4375 494.141 36.7812C494.141 37.0417 494.193 37.276 494.297 37.4844C494.411 37.6823 494.594 37.8646 494.844 38.0312C495.094 38.1979 495.417 38.3542 495.812 38.5C496.219 38.6354 496.719 38.7604 497.312 38.875C498.531 39.125 499.62 39.4531 500.578 39.8594C501.536 40.2552 502.297 40.7969 502.859 41.4844C503.422 42.1615 503.703 43.0521 503.703 44.1562C503.703 44.9062 503.536 45.5938 503.203 46.2188C502.87 46.8438 502.391 47.3906 501.766 47.8594C501.141 48.3177 500.391 48.6771 499.516 48.9375C498.651 49.1875 497.677 49.3125 496.594 49.3125C495.021 49.3125 493.688 49.0312 492.594 48.4688C491.51 47.9062 490.688 47.1927 490.125 46.3281C489.573 45.4531 489.297 44.5573 489.297 43.6406H493.562C493.583 44.2552 493.74 44.75 494.031 45.125C494.333 45.5 494.714 45.7708 495.172 45.9375C495.641 46.1042 496.146 46.1875 496.688 46.1875C497.271 46.1875 497.755 46.1094 498.141 45.9531C498.526 45.7865 498.818 45.5677 499.016 45.2969C499.224 45.0156 499.328 44.6927 499.328 44.3281Z" fill="#3367DB"/>
</svg>
