<svg width="120" height="120" viewBox="0 0 120 120" fill="none" xmlns="http://www.w3.org/2000/svg">
<g clip-path="url(#clip0_2441_19125)">
<path d="M42.5877 53.081C62.9873 52.265 64.7772 46.79 88.467 46.79L91.8888 29.3649L88.467 12.3872C64.8035 12.3872 63.0136 17.8622 42.693 18.6782C39.666 18.8098 37.2444 21.3104 37.2444 24.3374V47.9219C37.2444 50.8436 39.666 53.16 42.5877 53.0547V53.081Z" fill="#3467DB"/>
<path d="M98.7329 21.4155C97.2325 20.3889 95.39 19.7572 93.6001 19.7572C91.8102 19.7572 89.9676 20.3889 88.4673 21.4155V77.2444C88.4673 79.5607 90.3361 81.4559 92.6788 81.4559H94.5477C96.864 81.4559 98.7592 79.5871 98.7592 77.2444V21.4155H98.7329Z" fill="#B0C4FA"/>
<path d="M98.7329 21.4155V7.67548H88.4673V21.4155" fill="#B0C4FA"/>
<path d="M93.6002 15.2298C97.9696 15.2298 101.523 12.0185 101.523 8.04387C101.523 4.06925 97.9696 0.857971 93.6002 0.857971C89.2307 0.857971 85.6772 4.06925 85.6772 8.04387C85.6772 12.0185 89.2307 15.2298 93.6002 15.2298Z" fill="#4066D3"/>
<path d="M71.2001 97.4861L26.4001 95.1434V81.6929C26.4001 76.7443 30.4011 72.7434 35.3496 72.7434H80.1496L71.2001 97.4861Z" fill="#7F9CDD"/>
<path d="M55.5384 117.543H10.7384C7.00071 117.543 4 114.516 4 110.805V104.119C4 99.1707 8.00094 95.1697 12.9495 95.1697H57.7495L55.5384 117.57V117.543Z" fill="#B0C4FA"/>
<path d="M108.945 72.7434H86.4138C75.6745 85.1147 78.4383 109.831 103.234 117.543H108.945C112.841 117.543 116 114.385 116 110.489V79.7977C116 75.902 112.841 72.7434 108.945 72.7434Z" fill="#3467DB"/>
<path d="M80.1495 72.7434C75.201 72.7434 71.2001 76.7443 71.2001 81.6928V92.4585C71.2001 93.9326 70.0156 95.1434 68.5152 95.1434H57.7495C52.801 95.1434 48.8 99.1443 48.8 104.093V110.779C48.8 114.516 51.8271 117.517 55.5385 117.517H103.208C90.731 108.62 82.3869 91.1424 86.3878 72.717H80.1232L80.1495 72.7434Z" fill="#3467DB"/>
</g>
<defs>
<clipPath id="clip0_2441_19125">
<rect width="112" height="116.712" fill="white" transform="translate(4 0.831726)"/>
</clipPath>
</defs>
</svg>
